<svg width="89" height="81" viewBox="0 0 89 81" fill="none" xmlns="http://www.w3.org/2000/svg">
<path d="M48 6H74C76.7614 6 79 8.23858 79 11V29C79 31.7614 76.7614 34 74 34H72.5C71.9477 34 71.5 34.4477 71.5 35V40.2379C71.5 41.1732 70.3305 41.5966 69.7318 40.8781L64.2999 34.3598C64.1099 34.1318 63.8284 34 63.5316 34H43C40.2386 34 38 31.7614 38 29V26" stroke="black" stroke-width="2"/>
<path d="M10 5C10 2.79086 11.7909 1 14 1H45C47.2091 1 49 2.79086 49 5V23C49 25.2091 47.2091 27 45 27H24.4684C23.8748 27 23.3119 27.2636 22.9319 27.7196L17.5 34.2379L17.5 29C17.5 27.8954 16.6046 27 15.5 27H14C11.7909 27 10 25.2091 10 23V5Z" stroke="black" stroke-width="2"/>
<circle cx="22.5" cy="14.5" r="2" stroke="black"/>
<circle cx="30.5" cy="14.5" r="2" stroke="black"/>
<circle cx="38.5" cy="14.5" r="2" stroke="black"/>
<circle cx="44" cy="50" r="11" fill="black"/>
<path fill-rule="evenodd" clip-rule="evenodd" d="M25 69.2C25 64.7817 28.5817 61.2 33 61.2H56C60.4183 61.2 64 64.7817 64 69.2V80.2H57V72.2H55V80.2H34V72.2H32V80.2H25V69.2Z" fill="black"/>
<path d="M23.5856 52.9134C23.5856 57.2825 20.0383 60.8269 15.6593 60.8269C11.2803 60.8269 7.73291 57.2825 7.73291 52.9134C7.73291 48.5443 11.2803 45 15.6593 45C20.0383 45 23.5856 48.5443 23.5856 52.9134Z" fill="black" stroke="black" stroke-width="2"/>
<mask id="path-9-inside-1_301_58" fill="white">
<path fill-rule="evenodd" clip-rule="evenodd" d="M25.9226 62.0175C24.1381 63.4847 23 65.7094 23 68.2V76.2H0V70.0175C0 65.5992 3.58172 62.0175 8 62.0175H25.9226Z"/>
</mask>
<path fill-rule="evenodd" clip-rule="evenodd" d="M25.9226 62.0175C24.1381 63.4847 23 65.7094 23 68.2V76.2H0V70.0175C0 65.5992 3.58172 62.0175 8 62.0175H25.9226Z" fill="black"/>
<path d="M25.9226 62.0175L27.1928 63.5623L31.5041 60.0175H25.9226V62.0175ZM23 76.2V78.2H25V76.2H23ZM0 76.2H-2V78.2H0V76.2ZM25 68.2C25 66.3328 25.8505 64.6659 27.1928 63.5623L24.6523 60.4726C22.4256 62.3034 21 65.086 21 68.2H25ZM25 76.2V68.2H21V76.2H25ZM0 78.2H23V74.2H0V78.2ZM-2 70.0175V76.2H2V70.0175H-2ZM8 60.0175C2.47715 60.0175 -2 64.4946 -2 70.0175H2C2 66.7037 4.68629 64.0175 8 64.0175V60.0175ZM25.9226 60.0175H8V64.0175H25.9226V60.0175Z" fill="black" mask="url(#path-9-inside-1_301_58)"/>
<path d="M65.3346 52.9134C65.3346 57.2811 68.8866 60.8269 73.2744 60.8269C77.6622 60.8269 81.2142 57.2811 81.2142 52.9134C81.2142 48.5458 77.6622 45 73.2744 45C68.8866 45 65.3346 48.5458 65.3346 52.9134Z" fill="black" stroke="black" stroke-width="2"/>
<mask id="path-12-inside-2_301_58" fill="white">
<path fill-rule="evenodd" clip-rule="evenodd" d="M63.0001 62.0175C64.7845 63.4847 65.9226 65.7094 65.9226 68.2V76.2H88.9573V70.0175C88.9573 65.5992 85.3756 62.0175 80.9573 62.0175H63.0001Z"/>
</mask>
<path fill-rule="evenodd" clip-rule="evenodd" d="M63.0001 62.0175C64.7845 63.4847 65.9226 65.7094 65.9226 68.2V76.2H88.9573V70.0175C88.9573 65.5992 85.3756 62.0175 80.9573 62.0175H63.0001Z" fill="black"/>
<path d="M63.0001 62.0175L61.7298 63.5623L57.4185 60.0175H63.0001V62.0175ZM65.9226 76.2V78.2H63.9226V76.2H65.9226ZM88.9573 76.2H90.9573V78.2H88.9573V76.2ZM63.9226 68.2C63.9226 66.3328 63.0721 64.6659 61.7298 63.5623L64.2703 60.4726C66.497 62.3034 67.9226 65.086 67.9226 68.2H63.9226ZM63.9226 76.2V68.2H67.9226V76.2H63.9226ZM88.9573 78.2H65.9226V74.2H88.9573V78.2ZM90.9573 70.0175V76.2H86.9573V70.0175H90.9573ZM80.9573 60.0175C86.4801 60.0175 90.9573 64.4946 90.9573 70.0175H86.9573C86.9573 66.7037 84.271 64.0175 80.9573 64.0175V60.0175ZM63.0001 60.0175H80.9573V64.0175H63.0001V60.0175Z" fill="black" mask="url(#path-12-inside-2_301_58)"/>
</svg>
