<svg width="360" height="405" viewBox="0 0 360 405" fill="none" xmlns="http://www.w3.org/2000/svg">
<g clip-path="url(#clip0_344_2)">
<path d="M178.32 0H182.06C187.687 0.533333 191.49 1.37 193.47 2.51C243.69 31.45 293.893 60.42 344.08 89.42C348.88 92.1933 352.63 96.1533 355.33 101.3L284.09 142.41C238.76 67.45 132.75 61.01 81.69 133.71C54.97 171.75 52.69 221.99 76.02 262.6L4.64 303.69C2.04 299.237 0.493333 294.567 0 289.68V115.19C1.73 102.11 8.21 93.88 19.38 87.43C68.4133 59.09 117.46 30.78 166.52 2.5C168.727 1.23333 172.66 0.4 178.32 0Z" fill="#649AD2"/>
<path d="M355.33 101.3C358.023 105.893 359.58 110.567 360 115.32V290.05C359.487 294.697 357.953 299.227 355.4 303.64L284.15 262.52L231.86 232.51L180.02 202.49L231.8 172.56L284.09 142.41L355.33 101.3ZM287.08 195.75C286.992 195.75 286.909 195.715 286.847 195.653C286.785 195.591 286.75 195.508 286.75 195.42V182.83C286.75 182.787 286.741 182.744 286.725 182.704C286.708 182.664 286.684 182.627 286.653 182.597C286.623 182.566 286.586 182.542 286.546 182.525C286.506 182.509 286.463 182.5 286.42 182.5H273.58C273.537 182.5 273.494 182.509 273.454 182.525C273.414 182.542 273.377 182.566 273.347 182.597C273.316 182.627 273.292 182.664 273.275 182.704C273.259 182.744 273.25 182.787 273.25 182.83V195.42C273.25 195.508 273.215 195.591 273.153 195.653C273.091 195.715 273.008 195.75 272.92 195.75H260.3C260.212 195.75 260.129 195.785 260.067 195.847C260.005 195.909 259.97 195.992 259.97 196.08L260.01 208.92C260.01 209.008 260.045 209.091 260.107 209.153C260.169 209.215 260.252 209.25 260.34 209.25H272.92C273.008 209.25 273.091 209.285 273.153 209.347C273.215 209.409 273.25 209.492 273.25 209.58V222.17C273.25 222.258 273.285 222.341 273.347 222.403C273.409 222.465 273.492 222.5 273.58 222.5H286.45C286.538 222.5 286.621 222.465 286.683 222.403C286.745 222.341 286.78 222.258 286.78 222.17L286.7 209.58C286.7 209.492 286.735 209.409 286.797 209.347C286.859 209.285 286.942 209.25 287.03 209.25H299.67C299.758 209.25 299.841 209.215 299.903 209.153C299.965 209.091 300 209.008 300 208.92L300.01 196.08C300.01 195.992 299.975 195.909 299.913 195.847C299.851 195.785 299.768 195.75 299.68 195.75H287.08ZM337.07 195.75C336.985 195.75 336.904 195.716 336.844 195.656C336.784 195.596 336.75 195.515 336.75 195.43V182.82C336.75 182.735 336.716 182.654 336.656 182.594C336.596 182.534 336.515 182.5 336.43 182.5H323.54C323.455 182.5 323.374 182.534 323.314 182.594C323.254 182.654 323.22 182.735 323.22 182.82L323.3 195.43C323.3 195.515 323.266 195.596 323.206 195.656C323.146 195.716 323.065 195.75 322.98 195.75H310.29C310.205 195.75 310.124 195.784 310.064 195.844C310.004 195.904 309.97 195.985 309.97 196.07L310.01 208.93C310.01 209.015 310.044 209.096 310.104 209.156C310.164 209.216 310.245 209.25 310.33 209.25H323C323.085 209.25 323.166 209.284 323.226 209.344C323.286 209.404 323.32 209.485 323.32 209.57L323.22 222.18C323.22 222.265 323.254 222.346 323.314 222.406C323.374 222.466 323.455 222.5 323.54 222.5H336.47C336.555 222.5 336.636 222.466 336.696 222.406C336.756 222.346 336.79 222.265 336.79 222.18L336.67 209.57C336.67 209.485 336.704 209.404 336.764 209.344C336.824 209.284 336.905 209.25 336.99 209.25H349.68C349.765 209.25 349.846 209.216 349.906 209.156C349.966 209.096 350 209.015 350 208.93V196.07C350 195.985 349.966 195.904 349.906 195.844C349.846 195.784 349.765 195.75 349.68 195.75H337.07Z" fill="#00589C"/>
<path d="M231.8 172.56L180.02 202.49L128.5 232C112.5 199.5 124 166.5 148 152C172 137.5 210 136 231.8 172.56Z" fill="#649AD2"/>
<path d="M180.02 202.49L231.86 232.51C207.837 272.042 155 270 128.5 232L180.02 202.49Z" fill="#004482"/>
<path d="M284.15 262.52L355.4 303.64C350.67 312.31 344.89 315.1 334.71 320.99C288.55 347.657 242.38 374.31 196.2 400.95C191.96 403.397 187.117 404.747 181.67 405H177.7C172.287 404.513 168.4 403.59 166.04 402.23C115.827 373.277 65.6267 344.303 15.44 315.31C11.04 312.77 7.44001 308.897 4.64001 303.69L76.02 262.6C124.6 342.49 235.35 342.26 284.15 262.52Z" fill="#004482"/>
</g>
<defs>
<clipPath id="clip0_344_2">
<rect width="360" height="405" fill="white"/>
</clipPath>
</defs>
</svg>
