<svg width="156" height="156" viewBox="0 0 156 156" fill="none" xmlns="http://www.w3.org/2000/svg">
<path fill-rule="evenodd" clip-rule="evenodd" d="M9 37C5.13401 37 2 40.134 2 44V125C2 128.866 5.13401 132 9 132H73H84.5H147C150.866 132 154 128.866 154 125V44C154 40.134 150.866 37 147 37H139.5V35H147C151.971 35 156 39.0294 156 44V125C156 129.971 151.971 134 147 134H85.254L92.7938 154H104C104.552 154 105 154.448 105 155C105 155.552 104.552 156 104 156H52C51.4477 156 51 155.552 51 155C51 154.448 51.4477 154 52 154H64.2062L72.2006 134H9C4.02944 134 0 129.971 0 125V44C0 39.0294 4.02944 35 9 35H17.5V37H9ZM74 134H83.5L90.657 154H66.343L74 134ZM16.996 121.5C16.4437 121.502 15.9978 121.952 16 122.504C16.0022 123.056 16.4517 123.502 17.004 123.5L141.004 123.004C141.556 123.002 142.002 122.552 142 122C141.998 121.448 141.548 121.002 140.996 121.004L16.996 121.5Z" fill="black"/>
<path fill-rule="evenodd" clip-rule="evenodd" d="M36.5241 12H53V48H27V21.3913L36.5241 12ZM38.0303 14.3478H50.6364V45.6522H29.3636V23.3478H38.0303V14.3478ZM35.6667 16.3043V21H30.8682L35.6667 16.3043Z" fill="black"/>
<path d="M34 29.4667H44.8889V28H34V29.4667Z" fill="black"/>
<path d="M38.6667 39H47.2222V37.5333H38.6667V39Z" fill="black"/>
<path d="M44.1111 34.6H34V33.1333H44.1111V34.6Z" fill="black"/>
<path d="M45.6667 34.6H48V33.1333H45.6667V34.6Z" fill="black"/>
<path d="M48 29.4667H45.6667V28H48V29.4667Z" fill="black"/>
<path d="M34 39H37.1111V37.5333H34V39Z" fill="black"/>
<path d="M112 20V32H121.5V30H114V20H112Z" fill="black"/>
<path fill-rule="evenodd" clip-rule="evenodd" d="M130 30C130 38.8366 122.837 46 114 46C105.163 46 98 38.8366 98 30C98 21.1634 105.163 14 114 14C122.837 14 130 21.1634 130 30ZM128 30C128 37.732 121.732 44 114 44C106.268 44 100 37.732 100 30C100 22.268 106.268 16 114 16C121.732 16 128 22.268 128 30Z" fill="black"/>
<path d="M65 81C65 79.8954 65.8954 79 67 79H86.963V77H67C64.7909 77 63 78.7909 63 81V103.704C63 105.913 64.7909 107.704 67 107.704H89.7037C91.9128 107.704 93.7037 105.913 93.7037 103.704V95.2222H91.7037V103.704C91.7037 104.808 90.8083 105.704 89.7037 105.704H67C65.8954 105.704 65 104.808 65 103.704V81Z" fill="black"/>
<path d="M93.4142 84.4444C93.8028 84.052 93.7998 83.4189 93.4074 83.0302C93.015 82.6416 92.3818 82.6446 91.9932 83.037L80.1608 94.9838L72.712 88.1696C72.3045 87.7968 71.672 87.8249 71.2992 88.2324C70.9264 88.6399 70.9546 89.2725 71.3621 89.6452L80.2291 97.7569L93.4142 84.4444Z" fill="black"/>
<path d="M99.7874 11.2078C100.316 11.0491 100.617 10.4916 100.458 9.96263L97.8717 1.3422C97.713 0.813208 97.1555 0.513027 96.6265 0.671726C96.0975 0.830425 95.7973 1.38791 95.956 1.9169L98.2548 9.57951L90.5922 11.8783C90.0632 12.037 89.763 12.5945 89.9217 13.1235C90.0804 13.6525 90.6379 13.9527 91.1669 13.794L99.7874 11.2078ZM56.4741 11.1304C69.1781 4.28984 86.3219 4.28987 99.0259 11.1305L99.9741 9.36951C86.6781 2.21019 68.8219 2.21016 55.5259 9.36948L56.4741 11.1304Z" fill="black"/>
<path d="M100.027 89.4421C99.8998 89.9795 100.232 90.5182 100.77 90.6453L109.529 92.7158C110.066 92.8429 110.605 92.5102 110.732 91.9727C110.859 91.4352 110.526 90.8965 109.989 90.7695L102.203 88.929L104.044 81.1436C104.171 80.6061 103.838 80.0674 103.301 79.9403C102.763 79.8133 102.224 80.146 102.097 80.6835L100.027 89.4421ZM121.75 51.9704C121.323 66.3927 112.751 81.2396 100.475 88.8213L101.525 90.5229C114.374 82.5879 123.302 67.124 123.75 52.0297L121.75 51.9704Z" fill="black"/>
<path d="M32.2324 51.2723C31.8305 50.8935 31.1976 50.9123 30.8189 51.3142L24.6464 57.8641C24.2676 58.266 24.2864 58.8989 24.6884 59.2777C25.0903 59.6565 25.7232 59.6377 26.1019 59.2357L31.5886 53.4136L37.4107 58.9002C37.8126 59.279 38.4455 59.2602 38.8243 58.8583C39.203 58.4563 39.1843 57.8235 38.7823 57.4447L32.2324 51.2723ZM53.8221 88.8213C41.5459 81.2396 32.9741 66.3927 32.5462 51.9704L30.5471 52.0297C30.9949 67.124 39.923 82.588 52.7711 90.523L53.8221 88.8213Z" fill="black"/>
<path fill-rule="evenodd" clip-rule="evenodd" d="M90 50C90 56.6274 84.6274 62 78 62C71.3725 62 66 56.6274 66 50C66 43.3726 71.3725 38 78 38C84.6274 38 90 43.3726 90 50ZM88 50C88 55.5228 83.5228 60 78 60C72.4771 60 68 55.5228 68 50C68 44.4772 72.4771 40 78 40C83.5228 40 88 44.4772 88 50Z" fill="black"/>
<path fill-rule="evenodd" clip-rule="evenodd" d="M97.7476 37.6973C97.5777 37.2545 97.009 37.1009 96.7067 37.4664L96.6527 37.5317C94.857 39.3433 91.9384 39.3506 90.1337 37.5479C88.3433 35.7593 88.3221 32.8612 90.0757 31.0465C90.1033 31.0179 90.1293 30.9874 90.1524 30.9551L90.2461 30.8243C90.4999 30.47 90.3283 29.971 89.9102 29.8477L83.5276 27.356C83.0635 27.185 82.5614 27.5249 82.5614 28.0195C82.5614 30.5752 80.4976 32.647 77.9517 32.647C75.4059 32.647 73.3421 30.5752 73.3421 28.0195C73.3421 27.525 72.8496 27.1817 72.3856 27.3528L72.3629 27.3612L66.3349 29.8529C65.8362 30.0249 65.6749 30.6502 66.0282 31.042L66.0475 31.0634C67.8521 32.866 67.8593 35.796 66.0636 37.6076C64.2821 39.4049 61.3953 39.4262 59.5876 37.6662C59.5589 37.6383 59.5337 37.6068 59.512 37.5732C59.2613 37.1837 58.673 37.2498 58.5149 37.6852L58.5105 37.6973L55.6738 44.1046L55.6337 44.2379C55.4984 44.6879 55.8529 45.135 56.3219 45.1057C58.8677 45.1057 60.9315 47.1775 60.9315 49.7332C60.9315 52.2889 58.8677 54.3607 56.3219 54.3607L56.0496 54.3731C55.5994 54.3937 55.3527 54.9065 55.6176 55.2711C55.6464 55.3106 55.6699 55.3537 55.6875 55.3993L58.143 61.738L58.1593 61.7732C58.3606 62.208 58.9065 62.3544 59.2984 62.0787C59.3354 62.0527 59.3701 62.0231 59.4024 61.9914C61.2018 60.228 64.0845 60.2368 65.873 62.0234C67.6776 63.8261 67.6848 66.756 65.8891 68.5677C65.5119 68.8832 65.679 69.4959 66.1642 69.5763L66.2202 69.5856C66.2751 69.5947 66.3285 69.6114 66.3788 69.6351L72.331 72.447C72.7863 72.696 73.3421 72.3665 73.3421 71.8475V71.8028C73.3421 69.2471 75.4059 67.1753 77.9517 67.1753C80.4976 67.1753 82.5614 69.2471 82.5614 71.8028V71.8394C82.5614 72.3453 83.0896 72.6778 83.5458 72.459L90.2829 69.6113L90.3364 69.5926C90.8158 69.4251 90.8899 68.7781 90.4607 68.5067C88.6561 66.704 88.6489 63.774 90.4446 61.9624C92.2403 60.1508 95.159 60.1435 96.9636 61.9462L97.1002 62.0939C97.4292 62.4497 98.0234 62.2734 98.1051 61.7958C98.1117 61.7573 98.1221 61.7197 98.1362 61.6833L100.597 55.3307C100.789 54.869 100.45 54.3607 99.9497 54.3607H99.9362C97.3904 54.3607 95.3266 52.2889 95.3266 49.7332C95.3266 47.1775 97.3904 45.1057 99.9362 45.1057C100.443 45.1057 100.786 44.5904 100.592 44.1228C100.587 44.1107 100.582 44.1004 100.577 44.0886C100.446 43.817 98.6911 40.1565 97.7476 37.6973ZM87.2592 30.3405C87.862 30.5759 88.0813 31.3163 87.8306 31.9129C86.9033 34.1192 87.3386 36.7645 89.1333 38.5572C90.9397 40.3617 93.5997 40.7793 95.8013 39.8134C96.3807 39.5592 97.1049 39.7515 97.361 40.3301L98.3685 42.6057C98.6314 43.1995 98.2619 43.8816 97.6609 44.1277C95.4596 45.0291 93.9082 47.1993 93.9082 49.7332C93.9082 52.3017 95.5023 54.4965 97.7515 55.3749C98.3413 55.6052 98.7176 56.2542 98.4888 56.8447L97.6258 59.0724C97.3911 59.6783 96.6467 59.8984 96.0479 59.6461C93.8521 58.7208 91.2223 59.1592 89.4392 60.9581C87.6493 62.7638 87.2292 65.4192 88.1757 67.6238C88.4268 68.2089 88.2238 68.9367 87.6373 69.1846L85.0534 70.2768C84.4599 70.5277 83.7891 70.1545 83.5505 69.556C82.6619 67.3264 80.49 65.7515 77.9517 65.7515C75.4445 65.7515 73.2947 67.2882 72.3861 69.4745C72.1334 70.0827 71.433 70.4492 70.8375 70.1679L68.6865 69.1517C68.135 68.8912 67.9503 68.2014 68.1846 67.6383C69.1007 65.4361 68.6626 62.8014 66.8734 61.0141C65.0803 59.2229 62.4462 58.7982 60.2542 59.7367C59.6541 59.9936 58.9043 59.7747 58.6685 59.166L57.7693 56.8447C57.5405 56.2542 57.9167 55.6052 58.5066 55.3749C60.7558 54.4965 62.3499 52.3017 62.3499 49.7332C62.3499 47.1993 60.7984 45.0291 58.5971 44.1277C57.9962 43.8816 57.6267 43.1995 57.8896 42.6057L58.8565 40.4216C59.1116 39.8456 59.831 39.6521 60.4092 39.9021C62.6152 40.856 65.272 40.4248 67.069 38.6119C68.8659 36.7991 69.2823 34.1299 68.3213 31.9202C68.0647 31.3302 68.2709 30.5925 68.8654 30.3468L70.8528 29.5253C71.4457 29.2802 72.1109 29.6544 72.3469 30.2511C73.2317 32.4887 75.4077 34.0709 77.9517 34.0709C80.5101 34.0709 82.6962 32.471 83.5713 30.2134C83.8008 29.6215 84.4522 29.2447 85.0435 29.4755L87.2592 30.3405Z" fill="black"/>
</svg>
